<svg xmlns="http://www.w3.org/2000/svg" width="19" height="14" viewBox="0 0 19 14"><g transform="translate(17.378 0.5)"><g transform="translate(-16.878 0)"><path d="M23.13,25.63h-18a.5.5,0,0,1-.5-.5v-13a.5.5,0,0,1,.008-.091h0a.5.5,0,0,1,.021-.078h0v-.006h0a.5.5,0,0,1,.03-.065h0a.5.5,0,0,1,.421-.255H23.13a.5.5,0,0,1,.32.884l-9,7.5a.5.5,0,0,1-.64,0L5.63,13.2V24.63h17v-8.5a.5.5,0,0,1,1,0v9A.5.5,0,0,1,23.13,25.63Zm-16.619-13,7.619,6.349,7.619-6.349Z" transform="translate(-5.13 -12.13)" fill="#0086cd"/></g></g></svg>