<svg xmlns="http://www.w3.org/2000/svg" width="24" height="24" viewBox="0 0 24 24"><g transform="translate(0 -1)"><rect width="24" height="24" rx="12" transform="translate(0 1)" fill="#0087d2"/><path d="M12,1A11,11,0,0,0,4.222,19.778,11,11,0,0,0,19.778,4.222,10.928,10.928,0,0,0,12,1m0-1A12,12,0,1,1,0,12,12,12,0,0,1,12,0Z" transform="translate(0 1)" fill="#fff"/><g transform="translate(8.999 9.848)"><path d="M0,5.582,4.991.591H.974V0H6V5.024H5.409V1.01L.417,6Z" transform="translate(0.001 0.153)" fill="#fff"/><path d="M.416,6.354l-.77-.773L4.388.841H.724V-.25H6.25V5.274H5.159V1.613ZM.353,5.582l.064.064L5.659.407V4.774H5.75V.25H1.224V.341H5.595Z" transform="translate(0.001 0.153)" fill="#fff"/></g></g></svg>