<svg xmlns="http://www.w3.org/2000/svg" width="48" height="48" viewBox="0 0 48 48"><g transform="translate(-180 -814)"><rect width="48" height="48" rx="24" transform="translate(180 814)" fill="#f4f5f5"/><g transform="translate(189.921 823.96)"><g transform="translate(4.08 4.04)"><path d="M14.079,5.843c2.67,0,2.986.01,4.041.058a5.535,5.535,0,0,1,1.857.344,3.308,3.308,0,0,1,1.9,1.9A5.535,5.535,0,0,1,22.22,10c.048,1.055.058,1.371.058,4.041s-.01,2.986-.058,4.041a5.535,5.535,0,0,1-.344,1.857,3.315,3.315,0,0,1-1.9,1.9,5.535,5.535,0,0,1-1.857.344c-1.054.048-1.371.058-4.041.058s-2.986-.01-4.041-.058a5.535,5.535,0,0,1-1.857-.344,3.308,3.308,0,0,1-1.9-1.9,5.535,5.535,0,0,1-.344-1.857c-.048-1.055-.058-1.371-.058-4.041s.01-2.986.058-4.041a5.535,5.535,0,0,1,.344-1.857,3.308,3.308,0,0,1,1.9-1.9A5.535,5.535,0,0,1,10.04,5.9c1.055-.048,1.371-.058,4.041-.058m0-1.8c-2.716,0-3.056.012-4.123.06a7.338,7.338,0,0,0-2.428.466A5.111,5.111,0,0,0,4.6,7.492,7.34,7.34,0,0,0,4.14,9.919c-.048,1.064-.06,1.406-.06,4.122s.012,3.056.06,4.123A7.332,7.332,0,0,0,4.6,20.59,5.115,5.115,0,0,0,7.53,23.515a7.329,7.329,0,0,0,2.427.465c1.064.048,1.407.06,4.123.06s3.056-.012,4.123-.06a7.315,7.315,0,0,0,2.426-.465,5.11,5.11,0,0,0,2.925-2.925,7.329,7.329,0,0,0,.465-2.427c.048-1.064.06-1.407.06-4.123s-.012-3.056-.06-4.123a7.315,7.315,0,0,0-.465-2.426,5.115,5.115,0,0,0-2.925-2.925A7.34,7.34,0,0,0,18.2,4.1c-1.064-.048-1.406-.06-4.122-.06Z" transform="translate(-4.08 -4.04)" fill="#0087d2"/><path d="M131.775,126.64a5.135,5.135,0,1,0,5.135,5.135,5.135,5.135,0,0,0-5.135-5.135Zm0,8.469a3.334,3.334,0,1,1,3.334-3.334A3.334,3.334,0,0,1,131.775,135.109Z" transform="translate(-121.775 -121.773)" fill="#0087d2"/><circle cx="1.2" cy="1.2" r="1.2" transform="translate(14.137 3.463)" fill="#0087d2"/></g></g></g></svg>