<svg xmlns="http://www.w3.org/2000/svg" xmlns:xlink="http://www.w3.org/1999/xlink" width="331.328" height="60" viewBox="0 0 331.328 60">
  <defs>
    <clipPath id="clip-path">
      <rect id="長方形_3140" data-name="長方形 3140" width="229" height="60" fill="none"/>
    </clipPath>
  </defs>
  <g id="グループ_11165" data-name="グループ 11165" transform="translate(-32 -17)">
    <rect id="長方形_2844" data-name="長方形 2844" width="1" height="12" transform="translate(268 63)" fill="#d5d7d8"/>
    <g id="グループ_5840" data-name="グループ 5840" transform="translate(279.237 61.762)">
      <path id="パス_1309" data-name="パス 1309" d="M1.161,1.893a.143.143,0,0,1,.15.138A.652.652,0,0,1,1.23,2.3v9.967H.057V2.639A3.457,3.457,0,0,0,0,1.847Zm3.116,9.829v.54H3.058V2.272H9.5v9.99H8.278v-.54Zm4-8.932h-4V6.675h4Zm0,4.4h-4V11.2h4Z" transform="translate(0 -0.209)" fill="#333"/>
      <path id="パス_1310" data-name="パス 1310" d="M25.1,12.178A10.192,10.192,0,0,1,20.58,9.361v3.18H19.245V9.423a12.17,12.17,0,0,1-4.455,2.815l-.388-.51a8.12,8.12,0,0,0,3.885-3.01H15.858v-4.5h3.387V2.965h-4.88V2.418h4.88v-.46c0-.183-.012-.523-.012-.693l1.262.013c.1,0,.2,0,.2.1a1.134,1.134,0,0,1-.11.291v.752h4.965v.547H20.58v1.25h3.387v4.5h-2.4c.667,1.165,1.724,1.966,3.957,2.95ZM19.245,4.762H17.17v1.36h2.075Zm0,1.9H17.17V8.184h2.075ZM20.58,6.12h2.088V4.761H20.58Zm0,2.064h2.088V6.667H20.58Z" transform="translate(-2.74 -0.098)" fill="#333"/>
      <path id="パス_1311" data-name="パス 1311" d="M38.386,11.447c.147,0,1.87-.068,2.471-.136l-.2.647H35.6a4.969,4.969,0,0,1-3.48-.918,5.884,5.884,0,0,1-1.644,1.19l-.5-.375a5.281,5.281,0,0,0,1.644-1.337A6.09,6.09,0,0,1,30.45,7.242l1.088-.034a6.036,6.036,0,0,0,.545,2.436A10.549,10.549,0,0,0,32.5,6.46h-1.95l1.871-3.695H30.247V2.254h3.445v.409L31.981,5.949h1.632a8.211,8.211,0,0,1-.987,4.478c.578.624,1.451,1.02,3.389,1.02Zm-.873-3.638H39.9v.5H37.512V9.4h2.97v.5h-2.97v1.122H36.379V9.894h-2.6V9.4h2.6V8.307h-2.1v-.5h2.1V6.754h-2.2V6.244h2.2V5.009H33.556V4.5h2.823V3.331H34.225V2.809h2.154c0-.51-.011-.6-.034-1.008l1.088.045c.1,0,.17.011.17.112a1.127,1.127,0,0,1-.091.307v.544H39.9V4.5h.77v.511H39.9V6.754H37.512Zm0-3.311h1.281V3.331H37.512Zm0,1.746h1.281V5.009H37.512Z" transform="translate(-5.716 -0.201)" fill="#333"/>
      <path id="パス_1312" data-name="パス 1312" d="M48.293,6.1a8.842,8.842,0,0,1-2.733,4.7l-.609-.531a8.061,8.061,0,0,0,2.086-4.508ZM45.314,4.094V3.277h4.469V1.568h1.166V3.277h4.637v.817H50.949v7.8H49.782v-7.8Zm7.98,1.516a20.709,20.709,0,0,1,2.539,4.352l-1.23.725a17.046,17.046,0,0,0-2.008-4.663Z" transform="translate(-8.359 0.085)" fill="#333"/>
      <rect id="長方形_3058" data-name="長方形 3058" width="9.586" height="0.906" transform="translate(49.603 6.153)" fill="#333"/>
      <path id="パス_1313" data-name="パス 1313" d="M75.719,10.459c.388-.025.8-.039,1.217-.078a40.9,40.9,0,0,0,2.811-8.717l1.36.208a39.46,39.46,0,0,1-3.226,8.47,47.174,47.174,0,0,0,6.49-.945,22.528,22.528,0,0,0-1.749-3.355l.726-.375a21.756,21.756,0,0,1,3.109,5.674l-1.192.609a18.57,18.57,0,0,0-.609-1.762,51.17,51.17,0,0,1-8.808,1.451Z" transform="translate(-15.427 -0.174)" fill="#333"/>
      <path id="パス_1314" data-name="パス 1314" d="M101.133,2.487A15.575,15.575,0,0,1,98.658,7.1a20.971,20.971,0,0,1,4.119,3.549l-.932.945a19.957,19.957,0,0,0-3.679-3.9,15.355,15.355,0,0,1-6.1,4.08l-.3-.752a13.579,13.579,0,0,0,7.746-7.966H92.791V2.149h8.147a5.488,5.488,0,0,0-1-1.385l.571-.35a4.456,4.456,0,0,1,1.36,1.567ZM102.013,0a4.067,4.067,0,0,1,1.36,1.541l-.778.532a5.444,5.444,0,0,0-1.165-1.71Z" transform="translate(-19.283 0)" fill="#333"/>
    </g>
    <g id="グループ_5905" data-name="グループ 5905" transform="translate(32 17)">
      <g id="グループ_5904" data-name="グループ 5904" transform="translate(0 0)" clip-path="url(#clip-path)">
        <path id="前面オブジェクトで型抜き_2" data-name="前面オブジェクトで型抜き 2" d="M11.9,60a15.151,15.151,0,0,1-6.065-1.119,9.275,9.275,0,0,1-3.948-3.153,11.192,11.192,0,0,1-1.886-6.29,23.517,23.517,0,0,1,1.54-8.373c-.62,3.7.1,6.9,2.093,9.25,2.37,2.8,6.409,4.276,11.679,4.276,10.472,0,24.013-5.882,34.5-14.986a84.456,84.456,0,0,1-9.23,8.189,76.827,76.827,0,0,1-9.894,6.455,54.732,54.732,0,0,1-9.81,4.232A30.61,30.61,0,0,1,11.9,60Zm3.461-39.629h0a84.476,84.476,0,0,1,9.222-8.176,76.78,76.78,0,0,1,9.889-6.449,54.715,54.715,0,0,1,9.8-4.227A30.6,30.6,0,0,1,53.252,0a15.149,15.149,0,0,1,6.065,1.119,9.274,9.274,0,0,1,3.947,3.155,11.2,11.2,0,0,1,1.885,6.3A23.532,23.532,0,0,1,63.6,18.95c.624-3.709-.1-6.911-2.086-9.262-2.37-2.8-6.409-4.279-11.681-4.279C39.375,5.409,25.843,11.282,15.363,20.371Z" transform="translate(0 0)" fill="#0086cd"/>
        <path id="前面オブジェクトで型抜き_2_-_アウトライン" data-name="前面オブジェクトで型抜き 2 - アウトライン" d="M11.9,60.5a15.643,15.643,0,0,1-6.264-1.161,9.768,9.768,0,0,1-4.156-3.323A11.68,11.68,0,0,1-.495,49.45,24.009,24.009,0,0,1,1.074,40.9l.964.25c-.595,3.555.09,6.613,1.981,8.844,2.272,2.682,6.179,4.1,11.3,4.1,10.358,0,23.771-5.834,34.17-14.864l.686.726a84.954,84.954,0,0,1-9.285,8.238,77.328,77.328,0,0,1-9.958,6.5,55.23,55.23,0,0,1-9.9,4.27A31.1,31.1,0,0,1,11.9,60.5ZM.92,45.114A19.272,19.272,0,0,0,.5,49.425,10.7,10.7,0,0,0,2.3,55.439a8.782,8.782,0,0,0,3.739,2.984A14.659,14.659,0,0,0,11.9,59.5a30.116,30.116,0,0,0,8.83-1.5,54.233,54.233,0,0,0,9.719-4.193A76.326,76.326,0,0,0,40.281,47.4q.875-.669,1.735-1.362c-8.876,5.648-18.674,9.057-26.7,9.057-5.422,0-9.592-1.54-12.061-4.453A10.281,10.281,0,0,1,.92,45.114ZM15.2,21.174l-.441-.9L15,20.021A84.98,84.98,0,0,1,24.282,11.8a77.28,77.28,0,0,1,9.954-6.491A55.214,55.214,0,0,1,44.13,1.04,31.1,31.1,0,0,1,53.252-.5,15.641,15.641,0,0,1,59.517.661a9.767,9.767,0,0,1,4.156,3.324,11.684,11.684,0,0,1,1.976,6.572,24.023,24.023,0,0,1-1.574,8.56l-.964-.251c.6-3.559-.084-6.621-1.975-8.856-2.272-2.684-6.179-4.1-11.3-4.1-10.348,0-23.751,5.825-34.146,14.84ZM49.837,4.909c5.424,0,9.595,1.541,12.062,4.456a10.282,10.282,0,0,1,2.334,5.527,19.275,19.275,0,0,0,.416-4.31,10.708,10.708,0,0,0-1.793-6.02,8.781,8.781,0,0,0-3.739-2.985A14.657,14.657,0,0,0,53.252.5,30.11,30.11,0,0,0,44.427,2a54.215,54.215,0,0,0-9.714,4.189,76.275,76.275,0,0,0-9.824,6.407q-.877.67-1.738,1.365C32.024,8.314,41.817,4.909,49.837,4.909Z" transform="translate(0 0)" fill="rgba(0,0,0,0)"/>
        <path id="パス_1337" data-name="パス 1337" d="M90.215,16.635a21.942,21.942,0,0,0,3.412-8.5H81.1a6.722,6.722,0,0,1-1.309-.14V9.512a7.1,7.1,0,0,1,1.309-.14h9.274A19.078,19.078,0,0,1,84.142,20c-1.985,1.776-5.165,3.455-6.659,3.549l.584,1.308a7.08,7.08,0,0,1,1.215-.514,19.907,19.907,0,0,0,9.277-5.635c.3-.347.536-.605.816-.958,2.383,1.986,5.4,5.379,6.237,7.107l2.219-2.242c-.256-.21-.676-.584-1.12-.982a37.285,37.285,0,0,0-6.5-5" transform="translate(131.17 13.517)" fill="#0086cd"/>
        <path id="パス_1338" data-name="パス 1338" d="M50.851,12.834v-2.08l-.07.013a5.908,5.908,0,0,1-1.1.14H35.509a4.19,4.19,0,0,1-1.1-.14l-.075-.016v2.12l.081-.03a2.842,2.842,0,0,1,1.091-.161H49.677a5.584,5.584,0,0,1,1.1.14Z" transform="translate(58.13 18.179)" fill="#0086cd"/>
        <path id="パス_1339" data-name="パス 1339" d="M69.4,11.337V9.671l-.073.013a7.642,7.642,0,0,1-1.3.14H50.6a7.478,7.478,0,0,1-1.322-.14L49.2,9.671v1.663l.07-.011a7.581,7.581,0,0,1,1.325-.14h8.065c-.1,2.817-.609,4.55-1.694,5.979A8.919,8.919,0,0,1,51.106,20.5l-.086.008.649,1.5.062-.043a3.068,3.068,0,0,1,1.126-.457C58.794,20,61.3,17.063,61.476,11.183h6.549a5.559,5.559,0,0,1,1.3.14Z" transform="translate(83.298 16.353)" fill="#0086cd"/>
        <path id="パス_1340" data-name="パス 1340" d="M68.255,8.769a6.118,6.118,0,0,1-.738,1.111,18.5,18.5,0,0,1-8.523,5.888,8.049,8.049,0,0,1-2.577.6l-.086.005.522,1.4.059-.03a3.729,3.729,0,0,1,.9-.3,26.351,26.351,0,0,0,5.881-1.991v6.972a3.923,3.923,0,0,1-.162,1.149l-.024.081h2.572l-.019-.078a4.553,4.553,0,0,1-.164-1.152V14.2a22.5,22.5,0,0,0,3.463-2.885,5.192,5.192,0,0,1,.9-.81l.07-.046L68.293,8.7Z" transform="translate(95.362 14.715)" fill="#0086cd"/>
        <path id="パス_1341" data-name="パス 1341" d="M80.473,9.082l-1.495-.67-.011.083a17.562,17.562,0,0,1-4.643,8.342c-2.459,2.433-7.7,4.394-11.733,4.394h-.153l.913,2.858.019.065.062-.024a8.182,8.182,0,0,1,1.486-.417c7.688-1.367,13-6.025,14.94-13.116a4.5,4.5,0,0,1,.579-1.456Z" transform="translate(105.702 14.224)" fill="#0086cd"/>
        <path id="パス_1342" data-name="パス 1342" d="M75.232,8.045l-.016.046a13.836,13.836,0,0,1-5.022,6.649,2.564,2.564,0,0,1-1.007.457l-.081.022.808,1.3.057-.051a3.756,3.756,0,0,1,.848-.6,13.565,13.565,0,0,0,6.382-6l.218-.46H84.48c-.934,6.509-5.553,11.94-11.254,13.63a4.892,4.892,0,0,1-1.387.229l-.086.005.571,1.5.059-.032a5.937,5.937,0,0,1,1.25-.436A17.155,17.155,0,0,0,82.918,19a19.61,19.61,0,0,0,4.57-9.827l.2-1.125Z" transform="translate(116.988 13.604)" fill="#0086cd"/>
        <rect id="長方形_3135" data-name="長方形 3135" width="1.381" height="3.28" transform="translate(153.438 21.651)" fill="#0086cd"/>
        <rect id="長方形_3136" data-name="長方形 3136" width="1.384" height="3.28" transform="translate(151.154 21.651)" fill="#0086cd"/>
        <rect id="長方形_3137" data-name="長方形 3137" width="7.451" height="2.059" transform="translate(168.127 22.714)" fill="#0086cd"/>
        <rect id="長方形_3138" data-name="長方形 3138" width="1.381" height="3.28" transform="translate(205.47 21.651)" fill="#0086cd"/>
        <rect id="長方形_3139" data-name="長方形 3139" width="1.384" height="3.28" transform="translate(207.75 21.651)" fill="#0086cd"/>
        <path id="パス_1343" data-name="パス 1343" d="M51.375,9.49H64.11a6.858,6.858,0,0,1,1.3.14l.073.011V7.983l-.194.051a6.074,6.074,0,0,1-1.174.116H51.375a4.951,4.951,0,0,1-1.3-.14L50,7.991v1.65l.075-.011a7.361,7.361,0,0,1,1.3-.14" transform="translate(84.647 13.499)" fill="#0086cd"/>
        <path id="パス_1344" data-name="パス 1344" d="M30.2,9.992a7.976,7.976,0,0,1-.21,1.437c-.676,3.148-2.895,7.5-4.023,7.893l-.094.032,1.08,1.079.043-.059a5.25,5.25,0,0,1,.786-.832,18.369,18.369,0,0,0,4.573-6.795c.067-.183.14-.393.21-.608l.116-.323a9.872,9.872,0,0,1,.417-.955l.035-.065L30.2,9.914Z" transform="translate(43.795 16.764)" fill="#0086cd"/>
        <path id="パス_1345" data-name="パス 1345" d="M37.209,24.836V12.361h6.875a5.921,5.921,0,0,1,1.3.116l.075.013V10.849l-.075.013a6.9,6.9,0,0,1-1.3.137H37.209V8.583c0-.156.013-.3.027-.452.035-.21.089-.433.153-.678l.067-.256H34.4l.092.5c.046.245.083.455.108.657,0,.075.005.156.005.231V11H27.66a7.108,7.108,0,0,1-1.3-.137l-.075-.013v1.644l.075-.016a6.181,6.181,0,0,1,1.3-.116H34.6V24.836a6.838,6.838,0,0,1-.14,1.294l-.008.075h2.93l-.016-.078a5.576,5.576,0,0,1-.162-1.292" transform="translate(44.504 12.17)" fill="#0086cd"/>
        <path id="パス_1346" data-name="パス 1346" d="M37.79,17.894c-.11-.226-.175-.363-.232-.5a29.267,29.267,0,0,0-3.934-6.06,6.208,6.208,0,0,1-1.048-1.359l-.054-.094-1.408,1.1.073.046c1.2.786,3.568,5.745,4.3,9l.016.078,2.671-1.418-.024-.057c-.156-.328-.269-.562-.355-.74" transform="translate(52.672 16.712)" fill="#0086cd"/>
        <path id="パス_1347" data-name="パス 1347" d="M44.931,8.543l.011.062a6.259,6.259,0,0,1,.089.993V13.33c0,3.509-.361,5.253-1.486,7.179a7.055,7.055,0,0,1-3.167,2.99l-.078.024.862,1.249.051-.051A4.78,4.78,0,0,1,42.157,24c4.082-2.287,5.523-5.081,5.5-10.675V9.6a6,6,0,0,1,.065-.845c.032-.145.067-.291.108-.449l.067-.258H44.839Z" transform="translate(68.221 13.604)" fill="#0086cd"/>
        <path id="パス_1348" data-name="パス 1348" d="M55.552,15.224a6.14,6.14,0,0,1,.741-1.711h0l-1.419-.721-.016.081a12.135,12.135,0,0,1-7.912,8.546V9.595a6.133,6.133,0,0,1,.075-.926c.03-.124.059-.248.092-.369l.067-.256H44.126l.092.5.032.172a5.821,5.821,0,0,1,.073.875V24.772l.073-.013a13.741,13.741,0,0,0,11.154-9.526Z" transform="translate(74.7 13.604)" fill="#0086cd"/>
        <path id="パス_1349" data-name="パス 1349" d="M26.69,16.486a9.074,9.074,0,0,1-9.363,8.947c-5.038,0-9.285-3.611-9.285-8.821A9.04,9.04,0,0,1,17.58,7.867a8.781,8.781,0,0,1,9.11,8.619m-15.748-.1c0,3.557,2.518,7.222,6.511,7.222,3.867,0,6.336-2.823,6.336-6.612,0-3.711-2.367-7.3-6.388-7.3-3.942,0-6.46,2.844-6.46,6.684" transform="translate(13.614 13.297)" fill="#0086cd"/>
        <path id="パス_1350" data-name="パス 1350" d="M13.739,11.306A6.594,6.594,0,0,0,9.4,9.7c-1.575,0-3.568.557-3.568,2.314,0,3.482,9.514,3.431,9.514,8.135,0,2.721-3.1,5.261-7.411,5.261a15.473,15.473,0,0,1-4.95-.762l-.8-3.178a10.071,10.071,0,0,0,6.056,2.11c1.575,0,3.953-.864,3.953-2.645,0-3.966-9.511-3.253-9.511-8.643,0-3.2,3.565-4.421,6.94-4.421a15.006,15.006,0,0,1,4.12.56Z" transform="translate(3.692 13.316)" fill="#0086cd"/>
        <path id="パス_1351" data-name="パス 1351" d="M27.634,8.026V8.1c1.271.484,1.12,2.338,1.12,3.482v6.5c0,3.323-1.861,4.9-4.408,4.954H24c-2.55-.054-4.408-1.631-4.408-4.954v-6.5c0-1.144-.153-3,1.118-3.482V8.026H15.874V8.1c1.3.484,1.12,2.338,1.12,3.482v6.5A6.953,6.953,0,0,0,18.672,23.1a7.953,7.953,0,0,0,5.5,2.064,7.948,7.948,0,0,0,5.5-2.064,6.953,6.953,0,0,0,1.678-5.011v-6.5c0-1.144-.178-3,1.12-3.482V8.026Z" transform="translate(26.873 13.572)" fill="#0086cd"/>
      </g>
    </g>
    <path id="パス_32051" data-name="パス 32051" d="M6.624-7.512a14.589,14.589,0,0,0,.78-1.44h4.1V-9.48H.48v.528H5.832a13.393,13.393,0,0,1-5.5,6.42l.384.444A16.315,16.315,0,0,0,5.328-5.724V1.032h1.3ZM11.6-2.94A17.574,17.574,0,0,0,7.692-6.756l-.42.4a16.983,16.983,0,0,1,3.276,4.344Zm4.812-6.3c.792-.084.96-.1,1.6-.192a.343.343,0,0,0,.2.06c.06,0,.168-.012.168-.108a.191.191,0,0,0-.036-.1l-.468-.672a17.511,17.511,0,0,1-4.728.672l.24.5c.66,0,.756-.012,1.872-.072v1.08H12.816v.528h2.448v.84H13.116V-3.06h2.148v.924H12.816v.54h2.448V-.36A19.6,19.6,0,0,1,12.7-.216l.252.828c.024.06.06.132.132.132A.408.408,0,0,0,13.32.6c1.62-.2,2.988-.408,5.172-.828l.192-.588a20.247,20.247,0,0,1-2.268.336V-1.6h2.16v-.54h-2.16V-3.06H18.6V-6.7H16.416v-.84H18.9v-.528H16.416Zm-2.28,4.032v-.96h1.128v.96Zm1.128.54v1.08H14.136v-1.08Zm1.152-.54v-.96h1.128v.96Zm1.128.54v1.08H16.416v-1.08Zm.84,5.52c2.748-2.424,2.8-4.7,2.856-7.62H22.4a38.636,38.636,0,0,1-.372,6.324c-.144.624-.336.8-.816.8A5.977,5.977,0,0,1,20.064.228l.288.648h1.224c.864,0,1.344-.2,1.584-1.032a37.1,37.1,0,0,0,.432-7.14H21.24V-9.708c.108-.168.108-.2.108-.24,0-.108-.108-.132-.192-.132l-1.116-.072a4.761,4.761,0,0,1,.06.768V-7.3H18.876v.528h1.236c0,3.384-.336,5.472-2.244,7.284ZM29.232-4.08c.108-.168.2-.324.492-.816.1-.06.216-.132.216-.24a.116.116,0,0,0-.084-.1l-1.284-.36a7.957,7.957,0,0,1-1.3,3.1l.48.288a11.722,11.722,0,0,0,1.116-1.344h1.944v1.44H28.008v.54h2.808V.072H26.952V.6h9.06V.072H32.064V-1.572h2.628v-.54H32.064v-1.44h3.168V-4.08H32.064v-.888a.507.507,0,0,0,.108-.288c0-.084-.048-.108-.144-.108l-1.272-.06a3.269,3.269,0,0,1,.06.672v.672Zm1.92-4.8v-.912a.5.5,0,0,0,.108-.264.108.108,0,0,0-.108-.108L29.808-10.2c.024.18.06.528.06.636v.684H25.8v.54h2.04l-.408.288A7.414,7.414,0,0,1,28.3-6.336H25.764V-3.7c0,2.6-.444,3.444-.876,4.128l.54.336c1.344-1.548,1.584-2.856,1.584-5.232V-5.808H36.06v-.528H32.28c.12-.108.552-.528,1.284-1.236.1-.012.288-.036.288-.18,0-.048-.072-.12-.12-.144L32.76-8.34h2.532v-.54Zm1.284.54a6.308,6.308,0,0,1-.912,1.716l.54.288h-3.5l1.02-.588A14.566,14.566,0,0,0,28.008-8.34Zm14.9,5.328V-4.5H43.452v-.828h3.564V-7.536H43.452v-.876h4.7V-8.94h-4.7v-.672a1.405,1.405,0,0,0,.132-.408.14.14,0,0,0-.132-.12l-1.344-.036a1.586,1.586,0,0,1,.12.648v.588H37.62v.528h4.608v.876H38.652v2.208h3.576V-4.5H38.364v.54h3.864v.948H37.32v.528h4.908v.936H38.364v.54h3.864v.636C42.228.1,42.216.4,41.6.4A5.661,5.661,0,0,1,40.428.252l.24.66H42.24c1.08,0,1.212-.42,1.212-1.212v-.708h2.664v.5H47.34v-1.98h1.068v-.528ZM43.452-1.548v-.936h2.664v.936Zm0-1.464V-3.96h2.664v.948Zm2.376-4v1.14H43.452v-1.14Zm-5.976,1.14v-1.14h2.376v1.14ZM57.732-7.32h2.616v-.54H56.88V-9.708a.627.627,0,0,0,.084-.252c0-.084-.108-.108-.156-.108l-1.152-.012a1.958,1.958,0,0,1,.1.72v1.5H54.564V-9.672a.721.721,0,0,0,.1-.276c0-.072-.048-.12-.144-.12l-1.152-.012a2.113,2.113,0,0,1,.084.648V-7.86H49.9v.54h2.46l-.252.144c.216.348.6.984.72,1.26h-2.5v.528h4.164v.9H50.808v.54h3.684v.924H49.62V-2.5H53.4A6.8,6.8,0,0,1,49.824.276L50.3.7a9.4,9.4,0,0,0,4.188-2.712v3H55.74V-2.064A9.611,9.611,0,0,0,59.952.7l.48-.468A6.821,6.821,0,0,1,56.952-2.5h3.684v-.528h-4.9v-.924H59.4v-.54H55.74v-.9h4.2v-.528H57A10.044,10.044,0,0,0,58-6.9c.132-.048.192-.072.192-.144a.081.081,0,0,0-.048-.072Zm-1.272,1.4H53.412l.66-.3a13.187,13.187,0,0,0-1.092-1.1h3.888a9.489,9.489,0,0,1-.7,1.212ZM53.124-8.532A9.755,9.755,0,0,0,51.48-10.02l-.516.372A5.9,5.9,0,0,1,51.972-7.86Zm5.148-1.476a4.956,4.956,0,0,1-1.032,1.68l.576.384c.348-.228,1.476-1.176,1.56-1.26.216-.072.24-.084.24-.144s-.048-.1-.108-.12ZM73.224-1.08A12.5,12.5,0,0,1,68.8-7.128h4.188v-.54H68.04V-9.66a1.1,1.1,0,0,0,.084-.3.142.142,0,0,0-.132-.132l-1.26-.036a3.233,3.233,0,0,1,.1,1.008v1.452H61.9v.54h4.176a11.648,11.648,0,0,1-4.464,6.084l.456.42a11.608,11.608,0,0,0,4.764-5.352v4.008H64.5v.54h2.328V.948H68.04V-1.428h2.316v-.54H68.04v-4.02A13,13,0,0,0,72.816-.612Zm2.9,1.5h3.8V-3.744h-4.98V1h1.176Zm0-.528V-3.216h2.628V-.108Zm1.968-8.6V-9.72a1.322,1.322,0,0,0,.1-.324c0-.06-.1-.072-.156-.072L76.8-10.164a2.931,2.931,0,0,1,.048.624v.828h-2.2v.54h5.556v-.54ZM85.2-9.6H80.916V1H82.14V-9.06h1.68l-1.452,3.9a5.439,5.439,0,0,1,1.656,3.468c0,1.068-.432,1.2-.984,1.2A2.3,2.3,0,0,1,82.368-.6l.2.636H83.6A1.834,1.834,0,0,0,84.7-.18a1.869,1.869,0,0,0,.624-1.476,4.919,4.919,0,0,0-1.992-3.588L85.2-9.1ZM75.108-7.812A10.09,10.09,0,0,1,75.78-5.52l1.236-.492a12.242,12.242,0,0,0-1.44-2.064ZM78.7-8.124a7.048,7.048,0,0,1-.708,2.316l.564.24a11.756,11.756,0,0,0,1.26-1.74c.264-.18.3-.228.3-.3,0-.1-.084-.12-.156-.144ZM74.124-5.472v.54h6.384v-.54Z" transform="translate(176 73)" fill="#0087d2"/>
  </g>
</svg>
