<svg xmlns="http://www.w3.org/2000/svg" width="42" height="42" viewBox="0 0 42 42"><g transform="translate(-0.482 243.482) rotate(-90)"><path d="M21,1a20.006,20.006,0,0,0-7.785,38.429A20.005,20.005,0,0,0,28.785,2.571,19.874,19.874,0,0,0,21,1m0-1A21,21,0,1,1,0,21,21,21,0,0,1,21,0Z" transform="translate(201.482 0.482)" fill="#fff"/><g transform="translate(222.482 16.419) rotate(45)"><path d="M0,6.661,5.957.705H1.163V0h6V6H6.455V1.205L.5,7.161Z" transform="translate(0 0)" fill="#fff"/><path d="M.5,7.515l-.85-.854L5.353.955H.913V-.25h6.5v6.5H6.205V1.809ZM.353,6.662.5,6.807,6.705.6V5.746h.206V.25h-5.5V.455H6.561Z" transform="translate(0 0)" fill="#fff"/></g></g></svg>